<?xml version="1.0" encoding="utf-8"?>
<svg fill="none" height="20" viewBox="0 0 20 20" width="20" xmlns="http://www.w3.org/2000/svg">
<g clip-path="url(#clip0_672_1177)">
<path d="M9.96898 2.39844H9.37474C9.66776 3.14187 9.79659 3.9411 9.75223 4.74019C9.70787 5.53927 9.49139 6.31889 9.11793 7.02446H9.72583C12.1863 7.02446 13.8763 8.50807 13.8763 11.1985C13.8763 13.889 12.1863 15.371 9.72583 15.371H7.25924V9.04768C6.38465 9.61669 5.36674 9.91924 4.32688 9.91924C3.28703 9.91924 2.26912 9.61669 1.39453 9.04768V20.0001H9.96898C15.7836 20.0001 19.7849 16.6563 19.7849 11.2015C19.7849 5.7467 15.7836 2.39844 9.96898 2.39844Z" fill="#FFFFFF"/>
<path d="M4.22424 8.11976C6.44072 8.11976 8.23754 6.30209 8.23754 4.05988C8.23754 1.81767 6.44072 0 4.22424 0C2.00775 0 0.210938 1.81767 0.210938 4.05988C0.210938 6.30209 2.00775 8.11976 4.22424 8.11976Z" fill="#FFFFFF"/>
</g>
<defs>
<clipPath id="clip0_672_1177">
<rect fill="white" height="20" transform="translate(0.210938)" width="19.5745"/>
</clipPath>
</defs>
</svg>